# xmcd CD database file
#
# Track frame offsets:
#	150
#	18244
#	35285
#	48878
#	64221
#	79266
#	93209
#	107224
#	121055
#	138596
#	153241
#	170915
#	185294
#	198048
#	212951
#	229443
#
# Disc length: 3276 seconds
#
# Revision: 0
# Processed by: cddbd v1.5.1PL0 Copyright (c) Steve Scherf et al.
# Submitted via: CDex 1.51
#
DISCID=d60cca10
DTITLE=Stephen R Cheney - Smile
DYEAR=2002
DGENRE=Country
TTITLE0=You're Never Really Dressed Until You Smile
TTITLE1=Heart To Heart
TTITLE2=Can't Help Falling In Love
TTITLE3=I Cross My Heart
TTITLE4=40 Shades Of Green
TTITLE5=I Don't Know Why I Love You But I Do
TTITLE6=Last Chance Dance
TTITLE7=Follow Me
TTITLE8=You Say It Best When You Say Nothing At All
TTITLE9=Jesus, My Special Friend
TTITLE10=Fly Away
TTITLE11=One Day At A Time
TTITLE12=A Day Like Yesterday
TTITLE13=Relatively Speaking
TTITLE14=What Colour Is The Wind?
TTITLE15=The Dance
EXTD=YEAR: 2002
EXTT0=
EXTT1=
EXTT2=
EXTT3=
EXTT4=
EXTT5=
EXTT6=
EXTT7=
EXTT8=
EXTT9=
EXTT10=
EXTT11=
EXTT12=
EXTT13=
EXTT14=
EXTT15=
PLAYORDER=
